<mxfile host="app.diagrams.net" modified="2020-11-03T14:02:35.716Z" agent="5.0 (Windows NT 10.0; Win64; x64) AppleWebKit/537.36 (KHTML, like Gecko) Chrome/86.0.4240.111 Safari/537.36" etag="KMM4x1HfXU4H1xIJSUZg" version="13.8.8" type="github">
  <diagram id="44roVjjL7hT9gKghZYSf" name="Page-1">
    <mxGraphModel dx="2012" dy="635" grid="1" gridSize="10" guides="1" tooltips="1" connect="1" arrows="1" fold="1" page="1" pageScale="1" pageWidth="827" pageHeight="1169" math="0" shadow="0">
      <root>
        <mxCell id="0" />
        <mxCell id="1" parent="0" />
        <mxCell id="1mpjec-wGM9LX6DmMd_U-1" value="&lt;div style=&quot;text-align: left&quot;&gt;&lt;b&gt;*&lt;/b&gt;&lt;span&gt;Тип(хищник/травоядный/водное)&lt;/span&gt;&lt;br&gt;&lt;/div&gt;&lt;div style=&quot;text-align: left&quot;&gt;&lt;span&gt;&lt;b&gt;&lt;font style=&quot;font-size: 14px&quot;&gt;*&lt;/font&gt;&lt;/b&gt;Занимаемое место-число&lt;/span&gt;&lt;/div&gt;&lt;div style=&quot;text-align: left&quot;&gt;&lt;span&gt;*Вид вольера&lt;/span&gt;&lt;/div&gt;&lt;div style=&quot;text-align: left&quot;&gt;&lt;span&gt;*Необходимое кол-во еды в день-число&lt;/span&gt;&lt;/div&gt;&lt;div style=&quot;text-align: left&quot;&gt;&lt;span&gt;*Привлекательность-число&lt;/span&gt;&lt;/div&gt;&lt;div style=&quot;text-align: left&quot;&gt;&lt;span&gt;*Стоимость-число&lt;/span&gt;&lt;/div&gt;" style="whiteSpace=wrap;html=1;aspect=fixed;shadow=0;strokeColor=#3399FF;" parent="1" vertex="1">
          <mxGeometry x="365" y="375" width="160" height="160" as="geometry" />
        </mxCell>
        <mxCell id="tJPeNfGzK6K1vNvz1bMZ-6" value="" style="endArrow=classic;html=1;entryX=0;entryY=0.5;entryDx=0;entryDy=0;exitX=1;exitY=0.5;exitDx=0;exitDy=0;" parent="1" source="1mpjec-wGM9LX6DmMd_U-1" target="u7DJm_EilE4YctPllRHo-5" edge="1">
          <mxGeometry width="50" height="50" relative="1" as="geometry">
            <mxPoint x="440" y="530" as="sourcePoint" />
            <mxPoint x="445" y="610" as="targetPoint" />
          </mxGeometry>
        </mxCell>
        <mxCell id="tJPeNfGzK6K1vNvz1bMZ-8" value="" style="endArrow=classic;html=1;entryX=0.993;entryY=0.577;entryDx=0;entryDy=0;entryPerimeter=0;" parent="1" target="tJPeNfGzK6K1vNvz1bMZ-16" edge="1">
          <mxGeometry width="50" height="50" relative="1" as="geometry">
            <mxPoint x="364" y="430" as="sourcePoint" />
            <mxPoint x="310" y="459.9999999999999" as="targetPoint" />
            <Array as="points" />
          </mxGeometry>
        </mxCell>
        <mxCell id="tJPeNfGzK6K1vNvz1bMZ-9" value="&lt;br&gt;Список вольеров&lt;br&gt;Список построек для посетителей&lt;br&gt;Список животных&lt;br&gt;Количество денег&lt;br&gt;Количество еды&lt;br&gt;Уровень игрока&lt;br&gt;Стоимость билетов" style="whiteSpace=wrap;html=1;aspect=fixed;align=left;strokeColor=#00FF00;" parent="1" vertex="1">
          <mxGeometry x="380" y="190" width="130" height="130" as="geometry" />
        </mxCell>
        <mxCell id="tJPeNfGzK6K1vNvz1bMZ-10" value="" style="endArrow=classic;html=1;entryX=0.5;entryY=0;entryDx=0;entryDy=0;exitX=0.5;exitY=1;exitDx=0;exitDy=0;" parent="1" source="tJPeNfGzK6K1vNvz1bMZ-9" target="1mpjec-wGM9LX6DmMd_U-1" edge="1">
          <mxGeometry width="50" height="50" relative="1" as="geometry">
            <mxPoint x="380" y="540" as="sourcePoint" />
            <mxPoint x="430" y="490" as="targetPoint" />
            <Array as="points" />
          </mxGeometry>
        </mxCell>
        <mxCell id="tJPeNfGzK6K1vNvz1bMZ-13" style="edgeStyle=orthogonalEdgeStyle;rounded=0;orthogonalLoop=1;jettySize=auto;html=1;exitX=0;exitY=0.5;exitDx=0;exitDy=0;entryX=1;entryY=0.5;entryDx=0;entryDy=0;" parent="1" source="tJPeNfGzK6K1vNvz1bMZ-11" target="tJPeNfGzK6K1vNvz1bMZ-9" edge="1">
          <mxGeometry relative="1" as="geometry" />
        </mxCell>
        <mxCell id="tJPeNfGzK6K1vNvz1bMZ-11" value="Тип еды (для хищников/травоядных)&lt;br&gt;Количество" style="rounded=0;whiteSpace=wrap;html=1;align=left;strokeColor=#3399FF;" parent="1" vertex="1">
          <mxGeometry x="730" y="207.5" width="120" height="95" as="geometry" />
        </mxCell>
        <mxCell id="tJPeNfGzK6K1vNvz1bMZ-15" value="&lt;div&gt;&lt;span&gt;Тип постройки&amp;nbsp;&lt;/span&gt;&lt;/div&gt;&lt;div&gt;&lt;span&gt;Стоимость&lt;/span&gt;&lt;/div&gt;" style="rounded=0;whiteSpace=wrap;html=1;strokeColor=#3399FF;align=left;" parent="1" vertex="1">
          <mxGeometry y="375" width="200" height="65" as="geometry" />
        </mxCell>
        <mxCell id="tJPeNfGzK6K1vNvz1bMZ-16" value="Загрязненность&lt;br&gt;Размер&lt;br&gt;Стоимость&lt;br&gt;Тип&amp;nbsp;" style="rounded=0;whiteSpace=wrap;html=1;strokeColor=#3399FF;align=left;" parent="1" vertex="1">
          <mxGeometry x="210" y="375" width="120" height="95" as="geometry" />
        </mxCell>
        <mxCell id="tJPeNfGzK6K1vNvz1bMZ-18" value="" style="endArrow=classic;html=1;exitX=0;exitY=0.75;exitDx=0;exitDy=0;" parent="1" source="tJPeNfGzK6K1vNvz1bMZ-9" edge="1">
          <mxGeometry width="50" height="50" relative="1" as="geometry">
            <mxPoint x="240" y="500" as="sourcePoint" />
            <mxPoint x="267" y="373" as="targetPoint" />
            <Array as="points">
              <mxPoint x="267" y="288" />
            </Array>
          </mxGeometry>
        </mxCell>
        <mxCell id="tJPeNfGzK6K1vNvz1bMZ-19" value="" style="endArrow=classic;html=1;exitX=0.003;exitY=0.632;exitDx=0;exitDy=0;exitPerimeter=0;entryX=0.616;entryY=0.076;entryDx=0;entryDy=0;entryPerimeter=0;" parent="1" source="tJPeNfGzK6K1vNvz1bMZ-9" target="tJPeNfGzK6K1vNvz1bMZ-33" edge="1">
          <mxGeometry width="50" height="50" relative="1" as="geometry">
            <mxPoint x="240" y="500" as="sourcePoint" />
            <mxPoint x="129" y="367" as="targetPoint" />
            <Array as="points">
              <mxPoint x="127" y="272" />
            </Array>
          </mxGeometry>
        </mxCell>
        <mxCell id="tJPeNfGzK6K1vNvz1bMZ-22" value="Возраст&lt;br&gt;Пол" style="rounded=0;whiteSpace=wrap;html=1;strokeColor=#3399FF;align=left;" parent="1" vertex="1">
          <mxGeometry x="7.5" y="190" width="120" height="60" as="geometry" />
        </mxCell>
        <mxCell id="tJPeNfGzK6K1vNvz1bMZ-23" value="Посетители&amp;nbsp;&lt;br&gt;Персонал" style="rounded=0;whiteSpace=wrap;html=1;shadow=0;strokeColor=#33FF33;align=left;" parent="1" vertex="1">
          <mxGeometry x="167.5" y="190" width="120" height="60" as="geometry" />
        </mxCell>
        <mxCell id="tJPeNfGzK6K1vNvz1bMZ-24" value="" style="endArrow=classic;html=1;entryX=1;entryY=0.5;entryDx=0;entryDy=0;exitX=0;exitY=0.5;exitDx=0;exitDy=0;" parent="1" source="tJPeNfGzK6K1vNvz1bMZ-23" target="tJPeNfGzK6K1vNvz1bMZ-22" edge="1">
          <mxGeometry width="50" height="50" relative="1" as="geometry">
            <mxPoint x="147.5" y="340" as="sourcePoint" />
            <mxPoint x="197.5" y="290" as="targetPoint" />
          </mxGeometry>
        </mxCell>
        <mxCell id="tJPeNfGzK6K1vNvz1bMZ-25" value="&lt;font style=&quot;font-size: 14px&quot;&gt;&lt;b&gt;Зоопарк&lt;/b&gt;&lt;/font&gt;" style="text;html=1;strokeColor=#FFFFFF;fillColor=none;align=center;verticalAlign=middle;whiteSpace=wrap;rounded=0;shadow=0;" parent="1" vertex="1">
          <mxGeometry x="400" y="187.5" width="90" height="20" as="geometry" />
        </mxCell>
        <mxCell id="tJPeNfGzK6K1vNvz1bMZ-26" value="&lt;font style=&quot;font-size: 14px&quot;&gt;&lt;b&gt;Еда в зоопарке&lt;/b&gt;&lt;/font&gt;" style="text;html=1;align=center;verticalAlign=middle;resizable=0;points=[];autosize=1;" parent="1" vertex="1">
          <mxGeometry x="730" y="207.5" width="120" height="20" as="geometry" />
        </mxCell>
        <mxCell id="tJPeNfGzK6K1vNvz1bMZ-27" value="&lt;div&gt;&lt;div&gt;Название&lt;/div&gt;&lt;/div&gt;" style="rounded=0;whiteSpace=wrap;html=1;strokeColor=#FFB366;align=left;" parent="1" vertex="1">
          <mxGeometry x="730" y="427.5" width="120" height="55" as="geometry" />
        </mxCell>
        <mxCell id="tJPeNfGzK6K1vNvz1bMZ-29" value="" style="endArrow=classic;html=1;entryX=0.5;entryY=0;entryDx=0;entryDy=0;exitX=0.5;exitY=1;exitDx=0;exitDy=0;" parent="1" source="tJPeNfGzK6K1vNvz1bMZ-11" target="tJPeNfGzK6K1vNvz1bMZ-27" edge="1">
          <mxGeometry width="50" height="50" relative="1" as="geometry">
            <mxPoint x="485" y="410" as="sourcePoint" />
            <mxPoint x="535" y="360" as="targetPoint" />
          </mxGeometry>
        </mxCell>
        <mxCell id="tJPeNfGzK6K1vNvz1bMZ-30" value="&lt;font style=&quot;font-size: 14px&quot;&gt;&lt;b&gt;Тип еды&lt;/b&gt;&lt;/font&gt;" style="text;html=1;align=center;verticalAlign=middle;resizable=0;points=[];autosize=1;" parent="1" vertex="1">
          <mxGeometry x="755" y="427.5" width="70" height="20" as="geometry" />
        </mxCell>
        <mxCell id="tJPeNfGzK6K1vNvz1bMZ-32" value="&lt;font style=&quot;font-size: 14px&quot;&gt;&lt;b&gt;Вольеры&lt;/b&gt;&lt;/font&gt;" style="text;html=1;align=center;verticalAlign=middle;resizable=0;points=[];autosize=1;" parent="1" vertex="1">
          <mxGeometry x="230" y="375" width="80" height="20" as="geometry" />
        </mxCell>
        <mxCell id="tJPeNfGzK6K1vNvz1bMZ-33" value="&lt;font style=&quot;font-size: 14px&quot;&gt;&lt;b&gt;Постройки для посетителей&lt;/b&gt;&lt;/font&gt;" style="text;html=1;align=left;verticalAlign=middle;resizable=0;points=[];autosize=1;" parent="1" vertex="1">
          <mxGeometry y="375" width="210" height="20" as="geometry" />
        </mxCell>
        <mxCell id="tJPeNfGzK6K1vNvz1bMZ-34" value="&lt;font style=&quot;font-size: 14px&quot;&gt;&lt;b&gt;Животные&lt;/b&gt;&lt;/font&gt;" style="text;html=1;align=center;verticalAlign=middle;resizable=0;points=[];autosize=1;" parent="1" vertex="1">
          <mxGeometry x="400" y="380" width="90" height="20" as="geometry" />
        </mxCell>
        <mxCell id="tJPeNfGzK6K1vNvz1bMZ-35" style="edgeStyle=orthogonalEdgeStyle;rounded=0;orthogonalLoop=1;jettySize=auto;html=1;exitX=0.5;exitY=1;exitDx=0;exitDy=0;" parent="1" source="tJPeNfGzK6K1vNvz1bMZ-27" target="tJPeNfGzK6K1vNvz1bMZ-27" edge="1">
          <mxGeometry relative="1" as="geometry" />
        </mxCell>
        <mxCell id="tJPeNfGzK6K1vNvz1bMZ-42" value="&lt;b&gt;&lt;font style=&quot;font-size: 14px&quot;&gt;Люди&lt;/font&gt;&lt;/b&gt;" style="text;html=1;align=center;verticalAlign=middle;resizable=0;points=[];autosize=1;" parent="1" vertex="1">
          <mxGeometry x="197.5" y="190" width="50" height="20" as="geometry" />
        </mxCell>
        <mxCell id="tJPeNfGzK6K1vNvz1bMZ-43" value="&lt;font style=&quot;font-size: 14px&quot;&gt;&lt;b&gt;Посетители&lt;/b&gt;&lt;/font&gt;" style="text;html=1;align=center;verticalAlign=middle;resizable=0;points=[];autosize=1;" parent="1" vertex="1">
          <mxGeometry x="17.5" y="190" width="100" height="20" as="geometry" />
        </mxCell>
        <mxCell id="tJPeNfGzK6K1vNvz1bMZ-50" value="&lt;div&gt;&lt;span&gt;Закусочная&lt;/span&gt;&lt;/div&gt;&lt;div&gt;&lt;span&gt;Магазин&lt;/span&gt;&lt;/div&gt;&lt;div&gt;&lt;span&gt;Уборная&lt;/span&gt;&lt;/div&gt;" style="rounded=0;whiteSpace=wrap;html=1;shadow=0;strokeColor=#000000;fillColor=#CCCCCC;align=left;" parent="1" vertex="1">
          <mxGeometry x="-140" y="370" width="120" height="75" as="geometry" />
        </mxCell>
        <mxCell id="tJPeNfGzK6K1vNvz1bMZ-52" value="&lt;font style=&quot;font-size: 14px&quot;&gt;&lt;b&gt;Тип&amp;nbsp; постройки&lt;/b&gt;&lt;/font&gt;" style="text;html=1;align=center;verticalAlign=middle;resizable=0;points=[];autosize=1;shadow=0;" parent="1" vertex="1">
          <mxGeometry x="-140" y="370" width="120" height="20" as="geometry" />
        </mxCell>
        <mxCell id="u7DJm_EilE4YctPllRHo-1" value="Функция получения цены" style="rounded=0;whiteSpace=wrap;html=1;align=left;fillColor=#7EA6E0;" vertex="1" parent="1">
          <mxGeometry x="65" y="580" width="240" height="50" as="geometry" />
        </mxCell>
        <mxCell id="u7DJm_EilE4YctPllRHo-2" value="Хищник, травоядное, водное.&amp;nbsp;" style="rounded=0;whiteSpace=wrap;html=1;align=left;fillColor=#7EA6E0;strokeColor=#7EA6E0;" vertex="1" parent="1">
          <mxGeometry x="390" y="585" width="270" height="50" as="geometry" />
        </mxCell>
        <mxCell id="u7DJm_EilE4YctPllRHo-3" value="&lt;font style=&quot;font-size: 14px&quot;&gt;&lt;b&gt;Объект, обладающий стоимостью&lt;/b&gt;&lt;/font&gt;" style="text;html=1;align=center;verticalAlign=middle;resizable=0;points=[];autosize=1;" vertex="1" parent="1">
          <mxGeometry x="60" y="580" width="250" height="20" as="geometry" />
        </mxCell>
        <mxCell id="u7DJm_EilE4YctPllRHo-4" value="&lt;font&gt;&lt;b style=&quot;font-size: 14px&quot;&gt;Объект, &lt;/b&gt;&lt;span style=&quot;font-size: 14px&quot;&gt;&lt;b&gt;связанный&lt;/b&gt;&lt;/span&gt;&lt;b style=&quot;font-size: 14px&quot;&gt;&amp;nbsp;типом животного&lt;/b&gt;&lt;/font&gt;" style="text;html=1;align=center;verticalAlign=middle;resizable=0;points=[];autosize=1;" vertex="1" parent="1">
          <mxGeometry x="390" y="585" width="270" height="20" as="geometry" />
        </mxCell>
        <mxCell id="u7DJm_EilE4YctPllRHo-5" value="Название&amp;nbsp;&lt;br&gt;&lt;div&gt;&lt;span&gt;Тип еды&lt;/span&gt;&lt;/div&gt;" style="rounded=0;whiteSpace=wrap;html=1;align=left;" vertex="1" parent="1">
          <mxGeometry x="562.5" y="425" width="125" height="60" as="geometry" />
        </mxCell>
        <mxCell id="u7DJm_EilE4YctPllRHo-6" value="&lt;font style=&quot;font-size: 14px&quot;&gt;&lt;b&gt;Вид животного&lt;/b&gt;&lt;/font&gt;" style="text;html=1;align=center;verticalAlign=middle;resizable=0;points=[];autosize=1;" vertex="1" parent="1">
          <mxGeometry x="560" y="425" width="120" height="20" as="geometry" />
        </mxCell>
        <mxCell id="u7DJm_EilE4YctPllRHo-10" value="Мясо&lt;br&gt;Растения&lt;br&gt;Рыба" style="whiteSpace=wrap;html=1;aspect=fixed;fillColor=#CCCCCC;" vertex="1" parent="1">
          <mxGeometry x="880" y="427.5" width="55" height="55" as="geometry" />
        </mxCell>
        <mxCell id="u7DJm_EilE4YctPllRHo-11" value="" style="endArrow=none;html=1;entryX=0;entryY=0.5;entryDx=0;entryDy=0;exitX=1;exitY=0.5;exitDx=0;exitDy=0;" edge="1" parent="1" source="tJPeNfGzK6K1vNvz1bMZ-27" target="u7DJm_EilE4YctPllRHo-10">
          <mxGeometry width="50" height="50" relative="1" as="geometry">
            <mxPoint x="570" y="275" as="sourcePoint" />
            <mxPoint x="620" y="225" as="targetPoint" />
          </mxGeometry>
        </mxCell>
        <mxCell id="u7DJm_EilE4YctPllRHo-12" value="" style="endArrow=classic;html=1;entryX=0;entryY=0.5;entryDx=0;entryDy=0;exitX=1;exitY=0.5;exitDx=0;exitDy=0;" edge="1" parent="1" source="u7DJm_EilE4YctPllRHo-5" target="tJPeNfGzK6K1vNvz1bMZ-27">
          <mxGeometry width="50" height="50" relative="1" as="geometry">
            <mxPoint x="570" y="285" as="sourcePoint" />
            <mxPoint x="620" y="235" as="targetPoint" />
          </mxGeometry>
        </mxCell>
        <mxCell id="u7DJm_EilE4YctPllRHo-13" value="Возраст&lt;br&gt;Уровень игрока&lt;br&gt;Качество зоопарка" style="rounded=0;whiteSpace=wrap;html=1;shadow=0;strokeColor=#000000;align=left;" vertex="1" parent="1">
          <mxGeometry x="-120" y="570" width="120" height="70" as="geometry" />
        </mxCell>
        <mxCell id="u7DJm_EilE4YctPllRHo-14" value="&lt;span style=&quot;color: rgb(0 , 0 , 0) ; font-family: &amp;#34;helvetica&amp;#34; ; font-size: 14px ; font-style: normal ; letter-spacing: normal ; text-align: center ; text-indent: 0px ; text-transform: none ; word-spacing: 0px ; background-color: rgb(248 , 249 , 250)&quot;&gt;Объект, обладающий стоимостью&lt;br&gt;Уровень игрока&lt;br&gt;Промежуток времени&lt;br&gt;Цена&lt;br&gt;&lt;/span&gt;" style="rounded=0;whiteSpace=wrap;html=1;shadow=0;strokeColor=#000000;" vertex="1" parent="1">
          <mxGeometry x="67.5" y="660" width="235" height="100" as="geometry" />
        </mxCell>
        <mxCell id="u7DJm_EilE4YctPllRHo-15" value="&lt;font style=&quot;font-size: 14px&quot;&gt;&lt;b&gt;Вид билета&lt;/b&gt;&lt;/font&gt;" style="text;html=1;align=center;verticalAlign=middle;resizable=0;points=[];autosize=1;" vertex="1" parent="1">
          <mxGeometry x="-120" y="565" width="100" height="20" as="geometry" />
        </mxCell>
        <mxCell id="u7DJm_EilE4YctPllRHo-16" value="&lt;font style=&quot;font-size: 14px&quot;&gt;&lt;b&gt;Цена для разных случаев&lt;/b&gt;&lt;/font&gt;" style="text;html=1;strokeColor=none;fillColor=none;align=center;verticalAlign=middle;whiteSpace=wrap;rounded=0;shadow=0;" vertex="1" parent="1">
          <mxGeometry x="67.5" y="660" width="220" height="10" as="geometry" />
        </mxCell>
        <mxCell id="u7DJm_EilE4YctPllRHo-21" value="" style="endArrow=classic;html=1;exitX=0.5;exitY=0;exitDx=0;exitDy=0;" edge="1" parent="1" source="u7DJm_EilE4YctPllRHo-14">
          <mxGeometry width="50" height="50" relative="1" as="geometry">
            <mxPoint x="90" y="940" as="sourcePoint" />
            <mxPoint x="185" y="630" as="targetPoint" />
          </mxGeometry>
        </mxCell>
        <mxCell id="u7DJm_EilE4YctPllRHo-23" value="" style="endArrow=classic;html=1;entryX=0;entryY=0.5;entryDx=0;entryDy=0;exitX=1;exitY=0.5;exitDx=0;exitDy=0;" edge="1" parent="1" source="u7DJm_EilE4YctPllRHo-13" target="u7DJm_EilE4YctPllRHo-1">
          <mxGeometry width="50" height="50" relative="1" as="geometry">
            <mxPoint x="130" y="590" as="sourcePoint" />
            <mxPoint x="180" y="540" as="targetPoint" />
          </mxGeometry>
        </mxCell>
        <mxCell id="u7DJm_EilE4YctPllRHo-34" value="" style="endArrow=none;html=1;exitX=0.5;exitY=1;exitDx=0;exitDy=0;entryX=0;entryY=0.5;entryDx=0;entryDy=0;strokeColor=#0000FF;" edge="1" parent="1" target="u7DJm_EilE4YctPllRHo-40" source="tJPeNfGzK6K1vNvz1bMZ-15">
          <mxGeometry width="50" height="50" relative="1" as="geometry">
            <mxPoint x="390" y="780" as="sourcePoint" />
            <mxPoint x="170" y="540" as="targetPoint" />
            <Array as="points">
              <mxPoint x="100" y="530" />
              <mxPoint x="185" y="530" />
            </Array>
          </mxGeometry>
        </mxCell>
        <mxCell id="u7DJm_EilE4YctPllRHo-35" value="" style="triangle;whiteSpace=wrap;html=1;shadow=0;strokeColor=#FF0000;fillColor=#CCCCCC;rotation=90;" vertex="1" parent="1">
          <mxGeometry x="560" y="570" width="10" height="20" as="geometry" />
        </mxCell>
        <mxCell id="u7DJm_EilE4YctPllRHo-40" value="" style="triangle;whiteSpace=wrap;html=1;shadow=0;strokeColor=#0000FF;fillColor=#CCCCCC;rotation=90;" vertex="1" parent="1">
          <mxGeometry x="180" y="565" width="10" height="20" as="geometry" />
        </mxCell>
        <mxCell id="u7DJm_EilE4YctPllRHo-41" value="" style="endArrow=none;html=1;entryX=0.5;entryY=1;entryDx=0;entryDy=0;exitX=0;exitY=0.5;exitDx=0;exitDy=0;strokeColor=#0000FF;" edge="1" parent="1" source="u7DJm_EilE4YctPllRHo-40" target="tJPeNfGzK6K1vNvz1bMZ-16">
          <mxGeometry width="50" height="50" relative="1" as="geometry">
            <mxPoint x="480" y="590" as="sourcePoint" />
            <mxPoint x="530" y="540" as="targetPoint" />
            <Array as="points">
              <mxPoint x="185" y="530" />
              <mxPoint x="270" y="530" />
            </Array>
          </mxGeometry>
        </mxCell>
        <mxCell id="u7DJm_EilE4YctPllRHo-42" value="" style="endArrow=none;html=1;entryX=0;entryY=0.75;entryDx=0;entryDy=0;exitX=0;exitY=0.5;exitDx=0;exitDy=0;strokeColor=#0000FF;" edge="1" parent="1" source="u7DJm_EilE4YctPllRHo-40" target="1mpjec-wGM9LX6DmMd_U-1">
          <mxGeometry width="50" height="50" relative="1" as="geometry">
            <mxPoint x="480" y="590" as="sourcePoint" />
            <mxPoint x="530" y="540" as="targetPoint" />
            <Array as="points">
              <mxPoint x="185" y="520" />
              <mxPoint x="185" y="495" />
            </Array>
          </mxGeometry>
        </mxCell>
        <mxCell id="u7DJm_EilE4YctPllRHo-43" value="" style="endArrow=none;html=1;entryX=0.5;entryY=1;entryDx=0;entryDy=0;exitX=0;exitY=0.5;exitDx=0;exitDy=0;strokeColor=#0000FF;" edge="1" parent="1" source="u7DJm_EilE4YctPllRHo-40" target="tJPeNfGzK6K1vNvz1bMZ-27">
          <mxGeometry width="50" height="50" relative="1" as="geometry">
            <mxPoint x="480" y="660" as="sourcePoint" />
            <mxPoint x="530" y="610" as="targetPoint" />
            <Array as="points">
              <mxPoint x="185" y="510" />
              <mxPoint x="-130" y="510" />
              <mxPoint x="-130" y="770" />
              <mxPoint x="790" y="770" />
            </Array>
          </mxGeometry>
        </mxCell>
        <mxCell id="u7DJm_EilE4YctPllRHo-44" value="" style="endArrow=none;html=1;entryX=0.5;entryY=1;entryDx=0;entryDy=0;exitX=0;exitY=0.5;exitDx=0;exitDy=0;strokeColor=#FF3333;" edge="1" parent="1" source="u7DJm_EilE4YctPllRHo-35" target="u7DJm_EilE4YctPllRHo-5">
          <mxGeometry width="50" height="50" relative="1" as="geometry">
            <mxPoint x="720" y="630" as="sourcePoint" />
            <mxPoint x="770" y="580" as="targetPoint" />
            <Array as="points">
              <mxPoint x="565" y="530" />
              <mxPoint x="625" y="530" />
            </Array>
          </mxGeometry>
        </mxCell>
        <mxCell id="u7DJm_EilE4YctPllRHo-45" value="" style="endArrow=none;html=1;entryX=0.25;entryY=1;entryDx=0;entryDy=0;fillColor=#CC0000;strokeColor=#FF3333;" edge="1" parent="1" target="tJPeNfGzK6K1vNvz1bMZ-27">
          <mxGeometry width="50" height="50" relative="1" as="geometry">
            <mxPoint x="620" y="530" as="sourcePoint" />
            <mxPoint x="770" y="580" as="targetPoint" />
            <Array as="points">
              <mxPoint x="760" y="530" />
            </Array>
          </mxGeometry>
        </mxCell>
        <mxCell id="u7DJm_EilE4YctPllRHo-46" value="" style="endArrow=none;html=1;entryX=0.75;entryY=1;entryDx=0;entryDy=0;exitX=0;exitY=0.5;exitDx=0;exitDy=0;fillColor=#FF0000;strokeColor=#FF0000;" edge="1" parent="1" source="u7DJm_EilE4YctPllRHo-35" target="tJPeNfGzK6K1vNvz1bMZ-16">
          <mxGeometry width="50" height="50" relative="1" as="geometry">
            <mxPoint x="720" y="630" as="sourcePoint" />
            <mxPoint x="770" y="580" as="targetPoint" />
            <Array as="points">
              <mxPoint x="565" y="550" />
              <mxPoint x="300" y="550" />
            </Array>
          </mxGeometry>
        </mxCell>
        <mxCell id="u7DJm_EilE4YctPllRHo-49" value="" style="endArrow=none;html=1;strokeColor=#000000;fillColor=#CC0000;entryX=1;entryY=0.5;entryDx=0;entryDy=0;exitX=0;exitY=0.5;exitDx=0;exitDy=0;" edge="1" parent="1" source="tJPeNfGzK6K1vNvz1bMZ-15" target="tJPeNfGzK6K1vNvz1bMZ-50">
          <mxGeometry width="50" height="50" relative="1" as="geometry">
            <mxPoint x="510" y="640" as="sourcePoint" />
            <mxPoint x="560" y="590" as="targetPoint" />
          </mxGeometry>
        </mxCell>
        <mxCell id="u7DJm_EilE4YctPllRHo-50" value="" style="endArrow=none;html=1;strokeColor=#000000;fillColor=#CC0000;" edge="1" parent="1" target="u7DJm_EilE4YctPllRHo-51">
          <mxGeometry width="50" height="50" relative="1" as="geometry">
            <mxPoint x="430" y="710" as="sourcePoint" />
            <mxPoint x="560" y="710" as="targetPoint" />
            <Array as="points">
              <mxPoint x="470" y="710" />
            </Array>
          </mxGeometry>
        </mxCell>
        <mxCell id="u7DJm_EilE4YctPllRHo-51" value="" style="triangle;whiteSpace=wrap;html=1;shadow=0;strokeColor=#000000;fillColor=#FFFFFF;" vertex="1" parent="1">
          <mxGeometry x="562.5" y="695" width="17" height="30" as="geometry" />
        </mxCell>
        <mxCell id="u7DJm_EilE4YctPllRHo-52" value="Extends" style="text;html=1;align=center;verticalAlign=middle;resizable=0;points=[];autosize=1;" vertex="1" parent="1">
          <mxGeometry x="470" y="690" width="60" height="20" as="geometry" />
        </mxCell>
      </root>
    </mxGraphModel>
  </diagram>
</mxfile>
